PathFileType	4	(X/Y/Z)	9_2_34_p1_0-164.trc
DataRate	CameraRate	NumFrames	NumMarkers	Units	OrigDataRate	OrigDataStartFrame	OrigNumFrames
57.0	57.0	6	27	m	57.0	0	165
Frame#	Time	RHip			RKnee			RAnkle			RBigToe			RSmallToe			RHeel			LHip			LKnee			LAnkle			LBigToe			LSmallToe			LHeel			Neck			Head			Nose			RShoulder			RElbow			RWrist			RThumb			RIndex			RPinky			LShoulder			LElbow			LWrist			LThumb			LIndex			LPinky			
		X1	Y1	Z1	X2	Y2	Z2	X3	Y3	Z3	X4	Y4	Z4	X5	Y5	Z5	X6	Y6	Z6	X7	Y7	Z7	X8	Y8	Z8	X9	Y9	Z9	X10	Y10	Z10	X11	Y11	Z11	X12	Y12	Z12	X13	Y13	Z13	X14	Y14	Z14	X15	Y15	Z15	X16	Y16	Z16	X17	Y17	Z17	X18	Y18	Z18	X19	Y19	Z19	X20	Y20	Z20	X21	Y21	Z21	X22	Y22	Z22	X23	Y23	Z23	X24	Y24	Z24	X25	Y25	Z25	X26	Y26	Z26	X27	Y27	Z27	
0	0.0	0.3097515626071746	0.47475908198326433	1.1593954025735456	0.2806737044965258	0.4808385083282519	1.5113594287578285	0.289988202023635	0.5900307220707555	1.906379859891012	0.2661986653704928	0.36717978609662916	1.8731201599908147	0.3240205459206022	0.39560551381454306	1.8752330062029716	0.2718021027755471	0.7061492083658286	1.9957741466140593	0.08926420920237124	0.4515287180816735	1.1551887362467599	0.10563581282374236	0.5119469781053487	1.501310691469812	0.09013662983934459	0.5972368229931847	1.8961779765558469	0.10795864895731001	0.37034201645948894	1.8580449443083795	0.058729126128342475	0.427822520531282	1.8651317126145834	0.09210130352878217	0.7420049609492727	2.010355727158342	0.22045167147269562	0.39891710848719825	0.60014667034139	0.22614858370010046	0.353067710859172	0.34622965771410485	0.22425054547641507	0.2932268437762577	0.4902949376845975	0.36551178404350815	0.3980110859359771	0.6957095409948165	0.38544715153566533	0.3791833434275432	0.9461627945666411	0.2554472820141115	0.30616115623072854	1.1036535560498701	0.18611168894700797	0.30399571476480436	1.189978661410977	0.1810173428548903	0.3177508464880858	1.1957376910167812	0.19603465425377511	0.323131736581739	1.2137222894032147	0.05968576545967088	0.3987962300815136	0.6857578914891163	0.030320679895057323	0.3693258623140007	0.9353126645775162	0.14584678654795558	0.27144579592249374	1.0930528918289621	0.2332621005334366	0.28740178855608084	1.1611233920450814	0.22632511685057674	0.2859465985169631	1.1887141502214515	0.17822288351189397	0.28116544486571304	1.1933735019665694
1	0.017543859649122806	0.30932376801799205	0.4757800301144381	1.1557436322395265	0.28418186160225906	0.49340743857164904	1.5162572438883037	0.29014470683124205	0.5903964408565846	1.906672736427968	0.26933253396883877	0.3801889816642051	1.8805163093219615	0.32754172104493134	0.40861613581610984	1.8822931776946406	0.2730572651125262	0.7085307697665721	2.0024431425370945	0.08939549662230008	0.45167727466028906	1.155338437015222	0.10480742755354533	0.5126851502204728	1.5061280413520455	0.09017954783150636	0.5973788307769068	1.896156781577872	0.11290537649251796	0.3572545217630427	1.8505457250092072	0.05874908777584695	0.4277998609032165	1.8651396722420994	0.08657500817527006	0.7337994339531426	2.0054925060286424	0.22041730260696613	0.39892934512692624	0.6001163369968349	0.22611496104383488	0.35296447066729997	0.34622490763125374	0.22424205615611567	0.29321741871476115	0.4902920461046037	0.3654391735691065	0.3976150816455018	0.6956041036940838	0.3853891009956837	0.3789841255313808	0.9458529631768663	0.2554054914495316	0.3060803650323298	1.1036940038282186	0.19021986560223644	0.30427659293114967	1.1897720436756416	0.18140138527443989	0.31784490473736243	1.195689445169886	0.1963304762818218	0.32371358144494	1.2113400278119113	0.05969586809228637	0.39882624971952435	0.6858221848987348	0.030330069026444802	0.3690047273465988	0.9352021298921828	0.14564352094736105	0.2709826490749706	1.093044133806673	0.23341153096980735	0.28592657449019776	1.1575448140521194	0.22656079327496453	0.28620085391161487	1.1888035656047384	0.17820075092865684	0.2811952630276095	1.1936440127063472
2	0.03508771929824561	0.30964084956058524	0.47441941798875015	1.1591656655419627	0.283630780002464	0.4946136213570227	1.5126875655179541	0.29019745204213737	0.5906503672843513	1.9066754854464305	0.2693187796630858	0.380345133207955	1.8805907405743951	0.32750528171914695	0.40870635736088656	1.8822242526642787	0.27822061550089644	0.6916052888732558	1.9932156009693625	0.08941614741288792	0.4516528781436085	1.155395733494859	0.1048888443900729	0.5125978446627953	1.5061242876464436	0.09019625683937968	0.5974170862016052	1.896118712573931	0.11300314299644834	0.3568127037420336	1.8504671457044877	0.0588093713539906	0.42748222078439163	1.8653151754423836	0.08636567922469089	0.7337563038573426	2.005596462203757	0.22042891786718521	0.3989752102376288	0.6001890296264385	0.22610865364225247	0.35298898960789943	0.3462305152215063	0.2242176715284047	0.2931415950204254	0.49035220862851664	0.3654298668446119	0.397829508641349	0.695588804885382	0.3860697094384861	0.3782403595507904	0.9418887796944194	0.2600806126648873	0.29278011861454145	1.0966348896572755	0.18982771281492772	0.3174686964917688	1.1939705553885052	0.18039911302113265	0.34447787947794584	1.2090039684783063	0.19686595734293105	0.32016726061407347	1.213699614685615	0.059726399852733925	0.3988951321755658	0.685736945236183	0.030361428562103415	0.3690572215768129	0.9352842782461439	0.14524511304627727	0.27153385257428303	1.0964992381959178	0.23390439002921481	0.28610048331962096	1.1614430390839192	0.22183719123666348	0.29567341498620664	1.195323745054819	0.17811078688853893	0.28081915068088437	1.1935932660694275
3	0.05263157894736842	0.30942145062032267	0.47490843490875095	1.1551092461522259	0.2836953973686982	0.49460420773131447	1.512647810887523	0.2912280599131367	0.5926985727688107	1.9120342451237424	0.2727122542381513	0.39239934856206865	1.8868465625865725	0.33205290505568447	0.4102907387421535	1.882869839019666	0.27855072901200467	0.6894911002425312	1.99643502041805	0.08962788848097311	0.4514367256134607	1.155288514138124	0.10588457213834233	0.512036194355946	1.5016068804790914	0.09013781098568655	0.5972040883726719	1.8958340930179682	0.11531126814203418	0.36944625673540565	1.856859732314234	0.059985160338967745	0.42657854397162226	1.860751556846751	0.08317954072909985	0.7189303350653257	1.996590127787304	0.2201382490168342	0.39928994677616275	0.6035117054936099	0.22605243960251767	0.3528491760332405	0.34620536376117217	0.22421797320245748	0.29292043538917745	0.49033120741822966	0.3615991100408533	0.3968108498098206	0.6924484684344834	0.39046980452563584	0.36603769711237005	0.942976632356881	0.26005272046528605	0.2927360316031405	1.0966930271319861	0.19019086704128982	0.3172893002253932	1.1938177781946113	0.18509257013856323	0.3329806418537726	1.2082639924535852	0.19701318263110756	0.32009359289503636	1.213830077887633	0.059763101037362806	0.3988283070298559	0.6858650231159715	0.03044271393978946	0.3690613010919191	0.9353108765665296	0.14522676897268688	0.271811138715657	1.096570021028558	0.2338985451467492	0.28608961728106436	1.1614779646256035	0.22176896930890003	0.29564733049525554	1.195331006510616	0.17810597663250205	0.2810639596673112	1.1935802715470023
4	0.07017543859649122	0.3088190741281225	0.4756969397944594	1.1595526274877952	0.2836222219255403	0.49466275181052877	1.5127064997054316	0.29125334482807863	0.5928447750019169	1.9120340121355406	0.27257313997729343	0.39242612794322235	1.886746247482972	0.3275505857274936	0.4088107679458923	1.8820650500006768	0.27887713540095554	0.6903598853613142	1.9965901509791746	0.08957332252643471	0.4512804002882857	1.1552762771013227	0.10494429769254561	0.5126227334378634	1.506148500662052	0.0901819511994105	0.5971425108792131	1.8958138257710195	0.11537424545622552	0.3693216276242678	1.8568582193721876	0.0588020516178592	0.4275378797365795	1.8653090427431807	0.08327061678578868	0.7191195214361631	1.996817344714658	0.2201236880286437	0.39930071155420643	0.6035217868398031	0.22603806574092491	0.3527845068538117	0.3461601134271163	0.22422902846596035	0.2929269401467352	0.49033221235303587	0.36157898885193324	0.39694280003633403	0.6924686594945947	0.38992429475841933	0.3645856259327929	0.9384926644232775	0.2599879151404842	0.29273053481243216	1.0966782454079682	0.19499312080306186	0.30549649274975776	1.1899305514433378	0.18503018886677272	0.33303644162168833	1.2085759691540163	0.1965169242781772	0.3216300924843988	1.2138434965485965	0.05770301449604996	0.38785844812218595	0.6844409053137165	0.030399382800644956	0.36893232166593454	0.9352733638292654	0.14584949943832662	0.271004846752891	1.0931601213148767	0.23390579032997877	0.28701485718760716	1.1614870960785064	0.2219126973239557	0.2956161793608619	1.1952092715179299	0.17813011560410374	0.28132283936775315	1.193674280712884
5	0.08771929824561403	0.30911787494153503	0.4744689929573107	1.1630495044317657	0.28273422133604825	0.49281568223869693	1.5080102274080438	0.29119640157191556	0.5926857661270206	1.9119583082421159	0.27255495784681527	0.39269339482129145	1.8867703530086066	0.33178974511862425	0.4106912398903494	1.882690120688287	0.2800234236831701	0.6884870361108465	1.9908291299818317	0.08959396005826452	0.45132647627326167	1.1553740049840149	0.10591261399668951	0.5119709117682375	1.5015903743812216	0.09016398793331717	0.5971883058598937	1.8957731323590112	0.1080346922117983	0.3704637444811485	1.8578667673068237	0.05870918610629635	0.4277339290211707	1.8653685315102129	0.08310084406981126	0.7185860960675735	1.9961945127069713	0.2201262344229908	0.3993224033185172	0.603542243890438	0.2260312452059474	0.35277517568976835	0.346154283398918	0.22423804964967683	0.29293053726540913	0.49033401378924063	0.3653852292908603	0.39784428601360133	0.6955844788140988	0.38610631207384494	0.3780462732587222	0.9417928306753155	0.26005907553857355	0.29273262557083285	1.0966262182861692	0.19504569682022008	0.3051953949178785	1.1895389587922178	0.1850641893839357	0.3328750635166731	1.2082852309785808	0.1962954172472541	0.32112056408265	1.2136407793135306	0.0579202350595871	0.38926325822674707	0.6876858939896026	0.030391027757458323	0.3691828460065857	0.9353374498922182	0.14586564747208405	0.27093635085325724	1.093149421262127	0.23378310229395857	0.28689351780461886	1.1614464483523972	0.22183167169298357	0.29586572076048684	1.1952437944981542	0.1808743208104405	0.29307775889236515	1.1971131001267974
